Coordinates
version=1
nRows=18
nColumns=28
inDegrees=yes

Units are S.I. units (second, meters, Newtons, ...)
Angles are in degrees.

endheader
time	pelvis_tilt	pelvis_list	pelvis_rotation	pelvis_tx	pelvis_ty	pelvis_tz	hip_flexion_r	hip_adduction_r	hip_rotation_r	knee_angle_r	ankle_angle_r	subtalar_angle_r	mtp_angle_r	hip_flexion_l	hip_adduction_l	hip_rotation_l	knee_angle_l	socket_flexion	socket_adduction	socket_rotation	socket_tx	socket_ty	socket_tz	foot_flex	lumbar_extension	lumbar_bending	lumbar_rotation
      0.65416667	     -0.37673974	     -2.41250831	      5.50226381	     -0.04803231	      0.98195288	      0.26945500	     26.74456203	      6.06226110	     -0.13008167	     -7.14480233	     10.52795212	    -27.76615228	     -5.74624921	    -24.22606455	     -2.41419583	     17.62070602	      6.99616687	      7.50170200	      0.00000000	      0.00000000	      0.00000000	      0.00000000	      0.00000000	     10.24846268	    -11.10780936	      0.86024482	     -1.20112848
      0.65833333	     -0.31839466	     -2.47660146	      5.60749153	     -0.04234915	      0.98109357	      0.26895228	     26.83564475	      6.21421807	      0.04141171	     -7.76437775	     10.34719301	    -27.83692983	     -5.65069791	    -24.52052852	     -2.49834769	     17.68929336	      6.81726013	      7.54253134	      0.00000000	      0.00000000	      0.00000000	      0.00000000	      0.00000000	     10.31222627	    -11.18429847	      1.05994930	     -1.21762182
      0.66250000	     -0.19836042	     -2.53474226	      5.65401083	     -0.03662840	      0.98026364	      0.26847763	     26.95438896	      6.37475464	      0.09013745	     -8.57266472	     10.06970149	    -28.03978013	     -5.38926295	    -24.90503664	     -2.54654033	     17.58822069	      6.66939016	      7.60500339	      0.00000000	      0.00000000	      0.00000000	      0.00000000	      0.00000000	     10.37445097	    -11.32924171	      1.28371850	     -1.29251259
      0.66666667	      0.03261036	     -2.65974804	      5.79217768	     -0.03076593	      0.97960383	      0.26782211	     26.86385026	      6.54768179	     -0.00755992	     -9.13537429	      8.47633854	    -28.96395686	     -0.66198115	    -25.44260105	     -2.72552708	     17.61039818	      6.64971983	      7.74647792	      0.00000000	      0.00000000	      0.00000000	      0.00000000	      0.00000000	     10.40337010	    -11.58375780	      1.59494852	     -1.36345967
      0.67083333	      0.03621862	     -2.73343388	      5.94808211	     -0.02491570	      0.97877747	      0.26718912	     26.95629653	      6.67103969	      0.21972883	     -9.71674120	      8.32234527	    -28.94726749	     -0.65949187	    -25.65348909	     -2.83294179	     17.72920637	      6.44416103	      7.80828452	      0.00000000	      0.00000000	      0.00000000	      0.00000000	      0.00000000	     10.41040061	    -11.56861070	      1.81826533	     -1.37750033
      0.67500000	      0.13709163	     -2.81990429	      5.91793179	     -0.01908857	      0.97794742	      0.26682497	     27.19974149	      6.87657311	      0.13077622	    -10.77013360	      7.93502612	    -29.09879122	     -0.55731554	    -25.99645397	     -2.86534640	     17.54796937	      6.22638753	      7.85716298	      0.00000000	      0.00000000	      0.00000000	      0.00000000	      0.00000000	     10.44829219	    -11.68741710	      2.05793743	     -1.52052629
      0.67916667	      0.16187160	     -2.91758103	      6.04091720	     -0.01326485	      0.97720857	      0.26621198	     27.30822521	      7.03393246	      0.34731736	    -11.44539329	      7.71589744	    -29.10758934	     -0.51500917	    -26.20866796	     -2.98145691	     17.67106357	      6.00036251	      7.94202694	      0.00000000	      0.00000000	      0.00000000	      0.00000000	      0.00000000	     10.42931994	    -11.71491824	      2.32947347	     -1.54048632
      0.68333333	      0.27579367	     -3.01219605	      6.02775977	     -0.00731610	      0.97651175	      0.26575284	     27.49079976	      7.22145509	      0.23443326	    -12.44061572	      7.24432638	    -29.29218310	     -0.35760090	    -26.54444273	     -3.01463621	     17.45388454	      5.75465924	      8.01221606	      0.00000000	      0.00000000	      0.00000000	      0.00000000	      0.00000000	     10.41587321	    -11.83481690	      2.60108316	     -1.65462845
      0.68750000	      0.35535640	     -3.11138505	      6.09487736	     -0.00136564	      0.97586500	      0.26522836	     27.60127880	      7.38970934	      0.30450363	    -13.24184821	      6.86730421	    -29.40348136	     -0.19059576	    -26.81722911	     -3.10203618	     17.42934376	      5.50423663	      8.09913716	      0.00000000	      0.00000000	      0.00000000	      0.00000000	      0.00000000	     10.36524833	    -11.90268104	      2.86616588	     -1.70639238
      0.69166667	      0.40918352	     -3.22896608	      6.17029468	      0.00455145	      0.97529998	      0.26463658	     27.70400708	      7.56711288	      0.44145903	    -14.00127848	      6.55894224	    -29.46102560	     -0.09917950	    -27.03527010	     -3.20679793	     17.48992854	      5.23189415	      8.19504766	      0.00000000	      0.00000000	      0.00000000	      0.00000000	      0.00000000	     10.28981335	    -11.96245234	      3.15488085	     -1.73533210
      0.69583333	      0.86451410	     -3.40410728	      6.21107920	      0.01057125	      0.97522957	      0.26396508	     27.39309091	      7.80652502	      0.20396391	    -14.63649137	      4.21485938	    -31.28406622	      4.82302876	    -27.70767400	     -3.35279843	     17.21791050	      4.97533627	      8.29610991	      0.00000000	      0.00000000	      0.00000000	      0.00000000	      0.00000000	     10.18669155	    -12.46613478	      3.57608166	     -1.87320306
      0.70000000	      0.91223494	     -3.51248358	      6.21318495	      0.01665510	      0.97470855	      0.26343446	     27.57581214	      7.96593758	      0.14634178	    -15.56274547	      3.90088551	    -31.29208483	      4.86582752	    -27.89321956	     -3.38877934	     17.10695180	      4.60760412	      8.37640398	      0.00000000	      0.00000000	      0.00000000	      0.00000000	      0.00000000	     10.06975596	    -12.49269323	      3.85440727	     -1.90882281
      0.70416667	      1.02047008	     -3.60734290	      6.20959351	      0.02274037	      0.97433592	      0.26291030	     27.68830615	      8.11005578	      0.04512602	    -16.48846739	      3.50198406	    -31.31424561	      5.02253243	    -28.10241939	     -3.40199826	     16.97501041	      4.14418288	      8.41670586	      0.00000000	      0.00000000	      0.00000000	      0.00000000	      0.00000000	      9.94313060	    -12.58371769	      4.11451340	     -1.94310019
      0.70833333	      1.06996539	     -3.73286194	      6.24290428	      0.02881402	      0.97398604	      0.26234216	     27.76828679	      8.28123070	      0.14640272	    -17.22895181	      3.26550509	    -31.31631055	      5.06508568	    -28.25534640	     -3.48254397	     17.02223624	      3.77025025	      8.54704970	      0.00000000	      0.00000000	      0.00000000	      0.00000000	      0.00000000	      9.75432144	    -12.63875063	      4.41653282	     -1.95521733
      0.71250000	      1.29424334	     -3.82574654	      6.20770138	      0.03500000	      0.97390649	      0.26176293	     27.77284517	      8.40332714	     -0.11375271	    -18.21674934	      2.73910959	    -31.39600052	      5.35119738	    -28.50209468	     -3.43942698	     16.69428303	      3.07480225	      8.48215895	      0.00000000	      0.00000000	      0.00000000	      0.00000000	      0.00000000	      9.57825523	    -12.83287609	      4.68202493	     -2.00211396
      0.71666667	      1.44487985	     -3.92921227	      6.19355844	      0.04113668	      0.97383179	      0.26115909	     27.77829930	      8.53466180	     -0.21014904	    -19.05211973	      2.36710528	    -31.44556553	      5.62331799	    -28.66725498	     -3.43205809	     16.52925772	      2.44922311	      8.50375695	      0.00000000	      0.00000000	      0.00000000	      0.00000000	      0.00000000	      9.33215805	    -12.99267308	      4.98270765	     -2.03275877
      0.72083333	      1.67295927	     -3.93354925	      6.32625001	      0.04718717	      0.97401932	      0.26021122	     27.70364474	      8.43600820	     -0.63149559	    -19.86628867	      1.39102772	    -31.64577943	      9.02513342	    -28.71892498	     -3.34384311	     16.53181620	      1.35467218	      8.27813726	      0.00000000	      0.00000000	      0.00000000	      0.00000000	      0.00000000	      9.08388383	    -13.23816652	      5.20272000	     -2.24533902
      0.72500000	      1.77763195	     -4.07409805	      6.25611480	      0.05355432	      0.97395112	      0.25969810	     27.72099020	      8.61353126	     -0.69003125	    -20.68218106	      1.15100862	    -31.64159810	      9.01899433	    -28.86520291	     -3.35902429	     16.31544524	      0.83570277	      8.39769459	      0.00000000	      0.00000000	      0.00000000	      0.00000000	      0.00000000	      8.75665907	    -13.29795777	      5.51533443	     -2.23688200
